<svg id="Layer_1" data-name="Layer 1" xmlns="http://www.w3.org/2000/svg" viewBox="0 0 1080 1078"><defs><style>.cls-1{fill:#006400;}.cls-2{fill:#fff;}</style></defs><rect class="cls-1" width="1080" height="1078"/><path id="path1" class="cls-2" d="M338.41,685.19c-10.53-3.58-25.77-22.41-42.67-52.72C261.43,571,242.8,502,237.32,416.06c-1.06-16.53-1-58.34,0-73.65,5-72.15,22.74-134.29,55.28-193.73,10-18.2,26.48-42.05,34.39-49.66,11.19-10.76,18.23-11.63,25-3.08,2.76,3.48,3.39,5.1,3.75,9.57.66,8.41-2.37,15-16.45,35.69-19.67,28.94-28.75,45.05-38.81,68.87-22.83,54.1-32.6,111-31.2,181.69.74,37.67,3.57,65.43,9.82,96.31,5.62,27.81,12.37,50.24,22.47,74.69s18.68,40.09,35.73,65.08C352.26,649.77,356,657.39,356,666.12s-4.31,16.55-10.39,19c-3.36,1.33-3.59,1.33-7.18.11Zm394.84.33c-3.18-1-8.87-9.68-9.51-14.58-1-7.89,2.26-14.91,17.62-37.57,7.56-11.15,16.87-25.81,20.68-32.58,27.87-49.49,43.36-104.55,47.49-168.87,1.27-19.83.61-70.91-1.16-90.07-3.72-40.13-10.59-73-22.48-107.48-11.38-33-23.16-56.45-43-85.63-13.35-19.6-17.29-26.75-18.63-33.87s-.37-12.16,3.31-18.1c5-8.16,10.79-8.88,19.81-2.5,10.9,7.72,25,27.88,41.45,59.12,33,62.86,50,132,54.13,219.86,3.47,74.63-9.24,150.18-35.81,212.74-18.34,43.19-46.32,87.45-61.22,96.83-3.9,2.45-9.48,3.65-12.63,2.7ZM403.74,640c-8.92-3.85-14.09-16.55-11.94-29.31,1.33-7.89,6.9-16,12.31-18s287.6-2,293,0,11.06,10.14,12.28,18.24c1.6,10.61-1.75,21.47-8.25,26.78l-3.44,2.8-145.89.2c-80.25.11-146.9-.24-148.12-.76Zm111.13-97.66c-27.09-14-49.63-41.37-61.17-74.21A189.57,189.57,0,0,1,443.56,408c0-26.79,7.36-52.32,29.78-103.31,16.69-38,19.54-44.91,24.45-59.5,6.53-19.41,8.68-30.94,8.82-47.23.13-15.57-1.51-24.8-6.54-36.88-3.58-8.58-11.62-21.49-14.89-23.89-5.32-3.92-6.42-9.25-2.64-12.77,6-5.58,22.31-2,37.32,8.08q25.46,17.17,37.64,49.46c6.28,16.63,8.81,29.36,13.07,65.76,4.73,40.4,9.42,53.21,18.89,51.66,5-.82,8.16-3.53,10.27-8.89,3.37-8.54,1.93-20.22-4.89-39.54-5.56-15.8-5.22-20.57,1.31-18.11,3.38,1.27,14.35,14,22,25.53,19,28.76,28.47,54.89,33,91.19,2.38,19,2.58,50.62.42,67.12-2.73,20.82-8.26,40.47-16.12,57.28-8.76,18.74-27,42.44-40.33,52.31-6,4.45-8.08,4.72-11,1.43-3.66-4.1-2.89-6.95,5.2-19.18,12.15-18.38,18.36-31.45,22-46.24,5.55-22.82,2.79-54.64-6.51-74.92-3.85-8.4-9.5-15.81-12.05-15.81-1.39,0-1.16,2.62,1.43,16.12a93.12,93.12,0,0,1,1.64,12.85c0,12.36-12.24,21.31-23,16.85-8.77-3.63-12.63-14.95-11.47-33.6.36-5.77.68-16.24.71-23.28.06-12.41,0-13-2.78-20.78-5.38-15.1-17.81-30.65-24.51-30.65-2.89,0-3.12.25-3.12,3.27a10.58,10.58,0,0,0,2.11,6.07c6.93,9.22,8.24,28.11,3.09,44.79-3.18,10.31-6.77,16.14-19,31-16.12,19.48-21.31,28.76-24.53,43.82-1.49,7-1.64,9.8-1.22,22.57.7,21.43,3.77,35.63,10.94,50.67,5.5,11.54,11.95,18.86,20.7,23.52,4.21,2.24,4.67,2.82,4.67,5.83,0,3.5-1.86,5.8-4.62,5.69-.81,0-4.76-1.76-8.79-3.85Z" transform="translate(0 -3)"/><path class="cls-2" d="M75.83,831.57H65.43c-3.62,0-5.43-2.24-5.43-8.22,0-5.23,1.81-8.22,5.43-8.22h10.4V800.19c0-26.16,8.15-39.61,24-39.61a25.06,25.06,0,0,1,16.29,6c5.43,6,8.14,14.2,8.14,23.91,0,6.73-1.36,9.72-4.52,9.72-2.26,0-4.07-2.24-5-6-1.36-6.73-2.71-11.21-3.62-12.7-1.81-3.74-5.88-6-11.31-6-10,0-14.48,8.22-14.48,23.91v14.95h19c4.07,0,6.33,2.24,6.33,8.22,0,5.23-2.26,8.22-6.33,8.22h-19v99.39c0,6-1.35,9-4.52,9s-4.52-3-4.52-9Z" transform="translate(0 -3)"/><path class="cls-2" d="M160.43,922V831.57h-14c-4.07,0-5.88-2.24-5.88-8.22,0-5.23,1.81-8.22,5.88-8.22H165c3.16,0,5,4.49,5,13.45,5.89-10.46,11.77-15.69,18.55-15.69,5.43,0,9.5,2.24,12.67,8.22s4.52,12.71,4.52,21.67c0,6-1.35,9-4.52,9-1.81,0-3.17-2.24-4.07-6-1.36-7.47-2.26-11.21-2.26-11.95-1.36-3.74-4.08-6-7.24-6-3.62,0-7.24,2.24-10,6.72-1.8,2.25-4.52,6.73-7.69,14.2v72.49h17.65c4.07,0,5.88,2.24,5.88,7.47s-1.81,8.22-5.88,8.22H146.41c-4.07,0-5.88-2.24-5.88-8.22,0-5.23,1.81-8.22,5.88-8.22h14.48Z" transform="translate(0 -3)"/><path class="cls-2" d="M231,879.4v17.19c0,18.68,7.69,27.65,23.52,27.65,5.88,0,10.41-.75,14-3q2.71-1.12,9.5-9c2.71-4.48,5-6.72,5.88-6.72q4.06,0,4.07,6.72c0,4.49-1.81,9.72-5.88,15-6.33,8.22-15.83,12.7-28,12.7-21.71,0-32.57-14.2-32.57-43.34V853.25c0-9.72,2.26-18.69,6.78-25.41,5.89-9.72,14.93-14.2,26.7-14.2,21.26,0,31.66,17.93,31.66,53.06,0,9-2.26,12.7-5.88,12.7Zm0-15.69h46.6c0-23.17-7.69-35.13-23.53-35.13-5.88,0-10.86,2.25-15.83,6.73-4.53,6-7.24,12-7.24,19.43v9Z" transform="translate(0 -3)"/><path class="cls-2" d="M312.89,879.4v17.19c0,18.68,7.69,27.65,23.53,27.65,5.88,0,10.4-.75,14-3q2.71-1.12,9.5-9c2.72-4.48,5-6.72,5.88-6.72q4.08,0,4.08,6.72c0,4.49-1.81,9.72-5.89,15-6.33,8.22-15.83,12.7-28,12.7-21.72,0-32.58-14.2-32.58-43.34V853.25c0-9.72,2.26-18.69,6.79-25.41,5.88-9.72,14.93-14.2,26.69-14.2,21.26,0,31.67,17.93,31.67,53.06,0,9-2.26,12.7-5.88,12.7Zm0-15.69h46.6c0-23.17-7.69-35.13-23.52-35.13-5.89,0-10.86,2.25-15.84,6.73-5,6-7.24,12-7.24,19.43v9Z" transform="translate(0 -3)"/><path class="cls-2" d="M385.73,889.86V822.61c0-35.87,11.31-53.06,33.93-53.06,9,0,16.29,3.74,22.17,9.71q9.5,12.33,9.5,33.63c0,6.73-1.36,9.72-5,9.72-2.26,0-4.07-3-5-9.72A53.17,53.17,0,0,0,437.76,798c-2.72-9-9.05-12.71-19-12.71-8.15,0-14.48,3.74-18.1,10.46s-5,16.44-5,30.64v56q0,22.43,5.43,31.39c4.07,6.72,10,11.21,18.1,11.21,12.67,0,19.9-7.48,21.71-21.68a57.89,57.89,0,0,0,.91-9q1.35-4.49,4.07-4.49c3.17,0,5,3.74,5,9.72,0,13.45-3.62,23.91-10,32.13-5.43,6-12.21,9-21.26,9-10.4,0-18.55-3.74-24.43-12C388.9,919.75,385.73,906.3,385.73,889.86Z" transform="translate(0 -3)"/><path class="cls-2" d="M466.26,899.58V854.74c0-27.65,10.86-41.1,32.57-41.1s32.57,13.45,32.57,41.1v44.84c0,27.65-10.85,41.1-32.12,41.1C477.12,939.93,466.26,926.48,466.26,899.58Zm55.64,0V854.74c0-17.19-7.69-25.41-23.52-25.41-14.93,0-23.07,9-23.07,25.41v44.84c0,17.19,7.69,25.41,23.52,25.41C514.67,924.24,521.9,916,521.9,899.58Z" transform="translate(0 -3)"/><path class="cls-2" d="M602.88,925c-4.52,6-8.14,9-11.76,11.2A24.9,24.9,0,0,1,578,939.93c-8.59,0-15.83-3-21.26-9q-9.5-10.08-9.5-31.38V853.25c0-13.46,3.17-23.92,9-30.64,5-6,12.21-9,20.35-9,5.43,0,10,.75,13.58,3s7.69,6,11.76,12v-56c0-7.48,1.36-11.21,4.52-11.21s5,3.73,5,11.21V931.71c0,6-1.36,8.22-4.52,8.22-1.81,0-3.17-1.49-3.62-5.23C603.34,932.46,602.88,929.47,602.88,925Zm-.45-17.94V844.28c-4.52-6-8.14-9.72-11.31-11.21-4.07-2.24-8.14-3.74-12.67-3.74-5.88,0-10.85,1.5-14.47,6-4.53,4.48-7.24,12-7.24,20.18v43.34c0,9,2.26,15.69,7.24,20.92a20.77,20.77,0,0,0,14.93,6A25,25,0,0,0,592,922C595.19,917.51,598.81,913,602.43,907.05Z" transform="translate(0 -3)"/><path class="cls-2" d="M638.62,879.4v17.19c0,18.68,7.69,27.65,23.53,27.65,5.88,0,10.4-.75,14-3q2.72-1.12,9.5-9c2.72-4.48,5-6.72,5.89-6.72q4.07,0,4.07,6.72c0,4.49-1.81,9.72-5.88,15-6.34,8.22-15.84,12.7-28,12.7-21.72,0-32.58-14.2-32.58-43.34V853.25c0-9.72,2.27-18.69,6.79-25.41,5.88-9.72,14.93-14.2,26.69-14.2,21.26,0,31.67,17.93,31.67,53.06,0,9-2.26,12.7-5.88,12.7Zm0-15.69h46.6c0-23.17-7.69-35.13-23.52-35.13-5.88,0-10.86,2.25-15.84,6.73-5,6-7.24,12-7.24,19.43Z" transform="translate(0 -3)"/><path class="cls-2" d="M711.46,889.86V822.61c0-35.87,11.31-53.06,33.93-53.06,9.05,0,16.29,3.74,22.17,9.71q9.5,12.33,9.5,33.63c0,6.73-1.36,9.72-5,9.72-2.26,0-4.07-3-5-9.72A53.17,53.17,0,0,0,763.49,798c-2.72-9-9-12.71-19-12.71-8.15,0-14.48,3.74-18.1,10.46s-5,16.44-5,30.64v56q0,22.43,5.43,31.39c4.07,6.72,10,11.21,18.1,11.21,12.67,0,19.9-7.48,21.71-21.68a57.89,57.89,0,0,0,.91-9q1.35-4.49,4.07-4.49c3.17,0,5,3.74,5,9.72,0,13.45-3.62,23.91-10,32.13-5.42,6-12.21,9-21.26,9-10.4,0-18.55-3.74-24.43-12C714.63,919.75,711.46,906.3,711.46,889.86Z" transform="translate(0 -3)"/><path class="cls-2" d="M844.47,925q-6.79,9-10.86,11.2a23.32,23.32,0,0,1-12.67,3.74c-7.69,0-14.47-2.24-19.45-8.22-5.88-6.72-8.6-15.69-8.6-28.4s3.17-22.41,9.05-29.89c5-6.72,11.76-9.71,19.91-9.71,6.33,0,13.57,2.24,22.16,7.47V851.75c0-9-2.71-15.69-7.69-19.43a25,25,0,0,0-13.12-3.74c-12.21,0-18.54,6-19.9,17.19-.45,5.23-.91,8.22-.91,8.22-.9,2.24-2.26,3.74-4.07,3.74-3.62,0-5-3-5-9a42.3,42.3,0,0,1,5.88-22.42c4.52-9,13.12-12.7,25.33-12.7,9.5,0,16.74,2.24,21.26,8.22,5.43,6.72,8.15,17.19,8.15,32.88V910c0,6.72.9,11.21,2.26,12.7l4.52,3.74C862.11,928,863,930.22,863,934q0,6.74-4.08,6.73a5.64,5.64,0,0,1-4.07-1.5c-3.62-2.24-5.88-3.73-6.33-3.73C845.82,932.46,844.92,929.47,844.47,925ZM844,908.55V885.38c-7.23-3.74-14.47-6-20.35-6-14,0-20.81,7.47-20.81,22.42,0,8.22,2.26,14.2,6.33,17.19a19,19,0,0,0,12.67,4.48A18.67,18.67,0,0,0,834.06,919C836.32,918.26,839.49,914.52,844,908.55Z" transform="translate(0 -3)"/><path class="cls-2" d="M880.66,826.34c2.26-4.48,4.52-8.22,5.88-9.71,2.26-2.24,4.52-3.74,8.14-3.74q7.47,0,13.58,13.45c2.71-5.23,5-9,7.23-10.46,2.27-2.24,5.43-3,9-3,11.31,0,16.74,9,16.74,27.65v88.18c0,7.47-1.36,11.21-5,11.21-3.17,0-4.53-3.74-4.53-11.21v-83c0-11.21-2.71-17.19-8.14-17.19-4.07,0-8.15,4.49-11.76,12.71v87.43c0,7.47-1.36,11.21-4.53,11.21s-4.52-3.74-4.52-11.21V848c0-12.71-3.17-18.69-9.05-18.69-4.07,0-7.69,4.49-11.31,12.71v87.43c0,7.47-1.36,11.21-5,11.21-3.16,0-4.52-3.74-4.52-11.21V821.86c0-5.23,1.36-8.22,4.07-8.22,1.36,0,2.71,1.49,3.62,4.48C880.21,820.36,880.66,824.1,880.66,826.34Z" transform="translate(0 -3)"/><path class="cls-2" d="M965.26,826.34c7.24-9,15.83-12.7,25.33-12.7,19.91,0,29.41,14.2,29.41,41.1v44.84c0,12.7-2.71,23.16-8.14,30.64-5,6.72-11.77,9.71-20.36,9.71-10,0-18.55-4.48-26.24-13.45V978c0,8.22-1.36,12-4.52,12s-4.53-3.74-4.53-12V825.6c0-8.22,1.36-12,4.07-12,1.36,0,2.72,1.49,3.62,4.48A22.81,22.81,0,0,0,965.26,826.34Zm0,82.95c6.79,9.72,14.93,15,24.43,15,5.88,0,10.86-1.5,14.48-6,4.52-4.48,6.33-11.21,6.33-19.43V854c0-9.71-2.26-15.69-7.24-20.17-3.62-3-8.59-4.49-14.48-4.49a22.73,22.73,0,0,0-13.12,3.74c-3.16,2.24-6.33,6.72-10.85,14.2v62Z" transform="translate(0 -3)"/></svg>